<?xml version="1.0" encoding="UTF-8" standalone="no"?>
<!DOCTYPE svg PUBLIC "-//W3C//DTD SVG 1.1//EN"
 "http://www.w3.org/Graphics/SVG/1.1/DTD/svg11.dtd">
<!-- Generated by graphviz version 2.43.0 (0)
 -->
<!-- Title: %3 Pages: 1 -->
<svg width="1366pt" height="1361pt"
 viewBox="0.00 0.00 1365.65 1361.43" xmlns="http://www.w3.org/2000/svg" xmlns:xlink="http://www.w3.org/1999/xlink">
<g id="graph0" class="graph" transform="scale(1 1) rotate(0) translate(4 1357.43)">
<title>%3</title>
<polygon fill="white" stroke="transparent" points="-4,4 -4,-1357.43 1361.65,-1357.43 1361.65,4 -4,4"/>
<!-- MTDT&#45;Mailing -->
<g id="node1" class="node">
<title>MTDT&#45;Mailing</title>
<ellipse fill="#9bcd9b" stroke="black" cx="836" cy="-1302.52" rx="50.82" ry="50.82"/>
<text text-anchor="middle" x="836" y="-1321.32" font-family="Times,serif" font-size="14.00">MTDT</text>
<text text-anchor="middle" x="836" y="-1306.32" font-family="Times,serif" font-size="14.00">Mailing</text>
<text text-anchor="middle" x="836" y="-1291.32" font-family="Times,serif" font-size="14.00">Concepts</text>
<text text-anchor="middle" x="836" y="-1276.32" font-family="Times,serif" font-size="14.00">LAYER 1</text>
</g>
<!-- SelectedCompositionFwrk -->
<g id="node2" class="node">
<title>SelectedCompositionFwrk</title>
<path fill="green" stroke="black" d="M326,-784.71C326,-788.36 304.93,-791.33 279,-791.33 253.07,-791.33 232,-788.36 232,-784.71 232,-784.71 232,-725.19 232,-725.19 232,-721.54 253.07,-718.58 279,-718.58 304.93,-718.58 326,-721.54 326,-725.19 326,-725.19 326,-784.71 326,-784.71"/>
<path fill="none" stroke="black" d="M326,-784.71C326,-781.07 304.93,-778.1 279,-778.1 253.07,-778.1 232,-781.07 232,-784.71"/>
<text text-anchor="middle" x="279" y="-766.25" font-family="Times,serif" font-size="14.00">Selected</text>
<text text-anchor="middle" x="279" y="-751.25" font-family="Times,serif" font-size="14.00">Compositionn</text>
<text text-anchor="middle" x="279" y="-736.25" font-family="Times,serif" font-size="14.00">Framework</text>
</g>
<!-- MTDT&#45;Mailing&#45;&gt;SelectedCompositionFwrk -->
<g id="edge1" class="edge">
<title>MTDT&#45;Mailing&#45;&gt;SelectedCompositionFwrk</title>
<path fill="none" stroke="black" d="M785.01,-1299.39C650.09,-1292.38 294,-1264.34 294,-1163.61 294,-1163.61 294,-1163.61 294,-874.95 294,-850.6 290.87,-823.65 287.47,-801.57"/>
<polygon fill="black" stroke="black" points="290.89,-800.79 285.84,-791.48 283.98,-801.9 290.89,-800.79"/>
<text text-anchor="middle" x="332" y="-1017.58" font-family="Times,serif" font-size="14.00">Configuration</text>
</g>
<!-- SelectedCompositionModel -->
<g id="node3" class="node">
<title>SelectedCompositionModel</title>
<path fill="green" stroke="black" d="M608.5,-1192.37C608.5,-1196.02 589,-1198.98 565,-1198.98 541,-1198.98 521.5,-1196.02 521.5,-1192.37 521.5,-1192.37 521.5,-1132.84 521.5,-1132.84 521.5,-1129.19 541,-1126.23 565,-1126.23 589,-1126.23 608.5,-1129.19 608.5,-1132.84 608.5,-1132.84 608.5,-1192.37 608.5,-1192.37"/>
<path fill="none" stroke="black" d="M608.5,-1192.37C608.5,-1188.72 589,-1185.75 565,-1185.75 541,-1185.75 521.5,-1188.72 521.5,-1192.37"/>
<text text-anchor="middle" x="565" y="-1173.91" font-family="Times,serif" font-size="14.00">Selected</text>
<text text-anchor="middle" x="565" y="-1158.91" font-family="Times,serif" font-size="14.00">Composition</text>
<text text-anchor="middle" x="565" y="-1143.91" font-family="Times,serif" font-size="14.00">Model</text>
</g>
<!-- MTDT&#45;Mailing&#45;&gt;SelectedCompositionModel -->
<g id="edge2" class="edge">
<title>MTDT&#45;Mailing&#45;&gt;SelectedCompositionModel</title>
<path fill="none" stroke="black" d="M790.95,-1278.59C743.34,-1254.36 668.32,-1216.18 617.92,-1190.54"/>
<polygon fill="black" stroke="black" points="619.31,-1187.32 608.81,-1185.9 616.14,-1193.56 619.31,-1187.32"/>
<text text-anchor="middle" x="738" y="-1222.41" font-family="Times,serif" font-size="14.00">Configuration</text>
</g>
<!-- Interactive -->
<g id="node4" class="node">
<title>Interactive</title>
<ellipse fill="darksalmon" stroke="black" cx="1146" cy="-1021.28" rx="52.15" ry="52.15"/>
<text text-anchor="middle" x="1146" y="-1025.08" font-family="Times,serif" font-size="14.00">Interactive</text>
<text text-anchor="middle" x="1146" y="-1010.08" font-family="Times,serif" font-size="14.00">Usage</text>
</g>
<!-- MTDT&#45;Mailing&#45;&gt;Interactive -->
<g id="edge3" class="edge">
<title>MTDT&#45;Mailing&#45;&gt;Interactive</title>
<path fill="none" stroke="black" d="M884.23,-1285.57C927.53,-1269.42 990.87,-1241.03 1035,-1200.61 1072.18,-1166.54 1101.58,-1117.25 1120.76,-1079.11"/>
<polygon fill="black" stroke="black" points="1124.13,-1080.19 1125.41,-1069.68 1117.85,-1077.1 1124.13,-1080.19"/>
<text text-anchor="middle" x="1111" y="-1158.91" font-family="Times,serif" font-size="14.00">Usage</text>
</g>
<!-- MailingFile -->
<g id="node5" class="node">
<title>MailingFile</title>
<polygon fill="#fff68f" stroke="black" points="898.41,-1200.61 799.13,-1200.61 773.59,-1124.61 872.87,-1124.61 898.41,-1200.61"/>
<text text-anchor="middle" x="836" y="-1166.41" font-family="Times,serif" font-size="14.00">Mailing</text>
<text text-anchor="middle" x="836" y="-1151.41" font-family="Times,serif" font-size="14.00">File</text>
</g>
<!-- MTDT&#45;Mailing&#45;&gt;MailingFile -->
<g id="edge4" class="edge">
<title>MTDT&#45;Mailing&#45;&gt;MailingFile</title>
<path fill="none" stroke="black" d="M836,-1251.34C836,-1238.21 836,-1224.1 836,-1211.12"/>
<polygon fill="black" stroke="black" points="839.5,-1210.99 836,-1200.99 832.5,-1210.99 839.5,-1210.99"/>
<text text-anchor="middle" x="872" y="-1222.41" font-family="Times,serif" font-size="14.00">Specification</text>
</g>
<!-- CustomizeFile -->
<g id="node6" class="node">
<title>CustomizeFile</title>
<polygon fill="#fff68f" stroke="black" points="1075.04,-1059.28 928.62,-1059.28 890.96,-983.28 1037.38,-983.28 1075.04,-1059.28"/>
<text text-anchor="middle" x="983" y="-1025.08" font-family="Times,serif" font-size="14.00">Customize.el</text>
<text text-anchor="middle" x="983" y="-1010.08" font-family="Times,serif" font-size="14.00">File</text>
</g>
<!-- MTDT&#45;Mailing&#45;&gt;CustomizeFile -->
<g id="edge5" class="edge">
<title>MTDT&#45;Mailing&#45;&gt;CustomizeFile</title>
<path fill="none" stroke="black" d="M877,-1271.71C889.63,-1260.88 902.65,-1247.79 912,-1233.61 945.57,-1182.68 964.71,-1114.38 974.47,-1069.39"/>
<polygon fill="black" stroke="black" points="977.9,-1070.1 976.53,-1059.6 971.05,-1068.66 977.9,-1070.1"/>
<text text-anchor="middle" x="995" y="-1158.91" font-family="Times,serif" font-size="14.00">Specification</text>
</g>
<!-- PlainText -->
<g id="node7" class="node">
<title>PlainText</title>
<polygon fill="#c1cdcd" stroke="black" points="221.5,-642.48 152.5,-642.48 152.5,-606.48 221.5,-606.48 221.5,-642.48"/>
<text text-anchor="middle" x="187" y="-620.78" font-family="Times,serif" font-size="14.00">PlainText</text>
</g>
<!-- SelectedCompositionFwrk&#45;&gt;PlainText -->
<g id="edge6" class="edge">
<title>SelectedCompositionFwrk&#45;&gt;PlainText</title>
<path fill="none" stroke="black" d="M247.66,-710.18C231.09,-687.04 211.68,-659.94 199.36,-642.74"/>
<polygon fill="black" stroke="black" points="244.95,-712.41 253.62,-718.51 250.64,-708.34 244.95,-712.41"/>
<text text-anchor="middle" x="253" y="-683.75" font-family="Times,serif" font-size="14.00">Enum</text>
</g>
<!-- OrgMsg -->
<g id="node8" class="node">
<title>OrgMsg</title>
<polygon fill="#c1cdcd" stroke="black" points="302,-642.48 240,-642.48 240,-606.48 302,-606.48 302,-642.48"/>
<text text-anchor="middle" x="271" y="-620.78" font-family="Times,serif" font-size="14.00">OrgMsg</text>
</g>
<!-- SelectedCompositionFwrk&#45;&gt;OrgMsg -->
<g id="edge7" class="edge">
<title>SelectedCompositionFwrk&#45;&gt;OrgMsg</title>
<path fill="none" stroke="black" d="M276.16,-708.35C274.75,-685.62 273.12,-659.49 272.08,-642.74"/>
<polygon fill="black" stroke="black" points="272.68,-708.74 276.79,-718.51 279.66,-708.31 272.68,-708.74"/>
<text text-anchor="middle" x="293" y="-683.75" font-family="Times,serif" font-size="14.00">Enum</text>
</g>
<!-- LaTeX -->
<g id="node9" class="node">
<title>LaTeX</title>
<polygon fill="#c1cdcd" stroke="black" points="375.5,-642.48 320.5,-642.48 320.5,-606.48 375.5,-606.48 375.5,-642.48"/>
<text text-anchor="middle" x="348" y="-620.78" font-family="Times,serif" font-size="14.00">LaTeX</text>
</g>
<!-- SelectedCompositionFwrk&#45;&gt;LaTeX -->
<g id="edge8" class="edge">
<title>SelectedCompositionFwrk&#45;&gt;LaTeX</title>
<path fill="none" stroke="black" d="M305.83,-709.59C308.64,-704.69 311.42,-699.73 314,-694.95 323.51,-677.35 333.47,-656.7 340.13,-642.52"/>
<polygon fill="black" stroke="black" points="302.75,-707.93 300.75,-718.34 308.8,-711.45 302.75,-707.93"/>
<text text-anchor="middle" x="338" y="-683.75" font-family="Times,serif" font-size="14.00">Enum</text>
</g>
<!-- Html -->
<g id="node10" class="node">
<title>Html</title>
<polygon fill="#c1cdcd" stroke="black" points="54,-642.48 0,-642.48 0,-606.48 54,-606.48 54,-642.48"/>
<text text-anchor="middle" x="27" y="-620.78" font-family="Times,serif" font-size="14.00">Html</text>
</g>
<!-- SelectedCompositionFwrk&#45;&gt;Html -->
<g id="edge9" class="edge">
<title>SelectedCompositionFwrk&#45;&gt;Html</title>
<path fill="none" stroke="black" d="M221.92,-737.39C176.18,-722.36 111.82,-697.16 63,-661.95 55.35,-656.44 47.86,-649.23 41.72,-642.69"/>
<polygon fill="black" stroke="black" points="221.08,-740.79 231.67,-740.53 223.23,-734.13 221.08,-740.79"/>
<text text-anchor="middle" x="130" y="-683.75" font-family="Times,serif" font-size="14.00">Enum</text>
</g>
<!-- WithSelMailing -->
<g id="node11" class="node">
<title>WithSelMailing</title>
<polygon fill="#c1cdcd" stroke="black" points="134,-650.98 72,-650.98 72,-597.98 134,-597.98 134,-650.98"/>
<text text-anchor="middle" x="103" y="-635.78" font-family="Times,serif" font-size="14.00">With</text>
<text text-anchor="middle" x="103" y="-620.78" font-family="Times,serif" font-size="14.00">Selected</text>
<text text-anchor="middle" x="103" y="-605.78" font-family="Times,serif" font-size="14.00">Mailing</text>
</g>
<!-- SelectedCompositionFwrk&#45;&gt;WithSelMailing -->
<g id="edge10" class="edge">
<title>SelectedCompositionFwrk&#45;&gt;WithSelMailing</title>
<path fill="none" stroke="black" d="M223.03,-719.03C197.89,-702.61 168.27,-682.21 143,-661.95 138.75,-658.54 134.37,-654.81 130.14,-651.07"/>
<polygon fill="black" stroke="black" points="221.43,-722.16 231.72,-724.66 225.24,-716.29 221.43,-722.16"/>
<text text-anchor="middle" x="204" y="-683.75" font-family="Times,serif" font-size="14.00">Enum</text>
</g>
<!-- Gnus -->
<g id="node17" class="node">
<title>Gnus</title>
<polygon fill="orange" stroke="black" points="790,-652.98 754,-652.98 754,-595.98 790,-595.98 790,-589.98 808,-624.48 790,-658.98 790,-652.98"/>
<text text-anchor="middle" x="781" y="-627.78" font-family="Times,serif" font-size="14.00">Blee</text>
<text text-anchor="middle" x="781" y="-612.78" font-family="Times,serif" font-size="14.00">Gnus</text>
<text text-anchor="middle" x="781" y="-597.78" font-family="Times,serif" font-size="14.00"> </text>
</g>
<!-- SelectedCompositionFwrk&#45;&gt;Gnus -->
<g id="edge11" class="edge">
<title>SelectedCompositionFwrk&#45;&gt;Gnus</title>
<path fill="none" stroke="black" d="M326.32,-736.46C353.91,-725.66 389.07,-710.86 419,-694.95 429.78,-689.23 430.62,-684.35 442,-679.95 546.29,-639.67 679.73,-629.17 743.63,-626.44"/>
<polygon fill="black" stroke="black" points="743.78,-629.93 753.64,-626.05 743.51,-622.94 743.78,-629.93"/>
<text text-anchor="middle" x="461.5" y="-683.75" font-family="Times,serif" font-size="14.00">Inform</text>
</g>
<!-- MtdtMailingMenu -->
<g id="node21" class="node">
<title>MtdtMailingMenu</title>
<polygon fill="salmon" stroke="black" points="994.5,-530 909.5,-530 909.5,-473 994.5,-473 994.5,-467 1012.5,-501.5 994.5,-536 994.5,-530"/>
<text text-anchor="middle" x="961" y="-504.8" font-family="Times,serif" font-size="14.00">MTDT&#45;Mailing</text>
<text text-anchor="middle" x="961" y="-489.8" font-family="Times,serif" font-size="14.00">Menu</text>
<text text-anchor="middle" x="961" y="-474.8" font-family="Times,serif" font-size="14.00"> </text>
</g>
<!-- SelectedCompositionFwrk&#45;&gt;MtdtMailingMenu -->
<g id="edge12" class="edge">
<title>SelectedCompositionFwrk&#45;&gt;MtdtMailingMenu</title>
<path fill="none" stroke="black" d="M326.07,-727.15C353.53,-712.14 389.13,-693.73 422,-679.95 544.49,-628.61 578.61,-624.56 706,-587 788.51,-562.68 815.32,-568.57 899.71,-535.8"/>
<polygon fill="black" stroke="black" points="901.15,-538.99 909.17,-532.06 898.58,-532.48 901.15,-538.99"/>
<text text-anchor="middle" x="725.5" y="-620.78" font-family="Times,serif" font-size="14.00">Inform</text>
</g>
<!-- SelectedCompositionModel&#45;&gt;Gnus -->
<g id="edge51" class="edge">
<title>SelectedCompositionModel&#45;&gt;Gnus</title>
<path fill="none" stroke="black" d="M521.19,-1129.21C504.68,-1114.32 487.79,-1095.17 479,-1073.61 461.45,-1030.53 462.59,-1012.47 479,-968.95 541.94,-802.09 625.9,-798.55 746.87,-664.28"/>
<polygon fill="black" stroke="black" points="749.74,-666.32 753.77,-656.52 744.51,-661.67 749.74,-666.32"/>
</g>
<!-- ComposeNatModel -->
<g id="node28" class="node">
<title>ComposeNatModel</title>
<polygon fill="#c1cdcd" stroke="black" points="556,-1047.78 488,-1047.78 488,-994.78 556,-994.78 556,-1047.78"/>
<text text-anchor="middle" x="522" y="-1032.58" font-family="Times,serif" font-size="14.00">Native</text>
<text text-anchor="middle" x="522" y="-1017.58" font-family="Times,serif" font-size="14.00">Compose</text>
<text text-anchor="middle" x="522" y="-1002.58" font-family="Times,serif" font-size="14.00">Model</text>
</g>
<!-- SelectedCompositionModel&#45;&gt;ComposeNatModel -->
<g id="edge49" class="edge">
<title>SelectedCompositionModel&#45;&gt;ComposeNatModel</title>
<path fill="none" stroke="black" d="M551.03,-1116.34C544.05,-1093.72 535.85,-1067.17 529.96,-1048.06"/>
<polygon fill="black" stroke="black" points="547.74,-1117.56 554.04,-1126.09 554.43,-1115.5 547.74,-1117.56"/>
<text text-anchor="middle" x="565" y="-1095.41" font-family="Times,serif" font-size="14.00">Enum</text>
</g>
<!-- ComposeExtModel -->
<g id="node29" class="node">
<title>ComposeExtModel</title>
<polygon fill="#c1cdcd" stroke="black" points="642,-1047.78 574,-1047.78 574,-994.78 642,-994.78 642,-1047.78"/>
<text text-anchor="middle" x="608" y="-1032.58" font-family="Times,serif" font-size="14.00">External</text>
<text text-anchor="middle" x="608" y="-1017.58" font-family="Times,serif" font-size="14.00">Compose</text>
<text text-anchor="middle" x="608" y="-1002.58" font-family="Times,serif" font-size="14.00">Model</text>
</g>
<!-- SelectedCompositionModel&#45;&gt;ComposeExtModel -->
<g id="edge50" class="edge">
<title>SelectedCompositionModel&#45;&gt;ComposeExtModel</title>
<path fill="none" stroke="black" d="M582.65,-1116.58C583.82,-1113.22 584.96,-1109.87 586,-1106.61 592.23,-1087.15 598.01,-1064.77 602.08,-1047.95"/>
<polygon fill="black" stroke="black" points="579.35,-1115.41 579.24,-1126.01 585.93,-1117.79 579.35,-1115.41"/>
<text text-anchor="middle" x="608" y="-1095.41" font-family="Times,serif" font-size="14.00">Enum</text>
</g>
<!-- Interactive&#45;&gt;Gnus -->
<g id="edge26" class="edge">
<title>Interactive&#45;&gt;Gnus</title>
<path fill="none" stroke="black" d="M1108.61,-984.65C1100.91,-978.71 1092.54,-973.13 1084,-968.95 1050.88,-952.74 1034.44,-970.23 1003,-950.95 927.36,-904.59 922.67,-872.4 876,-796.95 846.07,-748.56 853.41,-728.67 824,-679.95 821.01,-675 817.62,-669.98 814.1,-665.11"/>
<polygon fill="black" stroke="black" points="816.88,-662.98 808.09,-657.06 811.27,-667.17 816.88,-662.98"/>
</g>
<!-- Interactive&#45;&gt;MtdtMailingMenu -->
<g id="edge27" class="edge">
<title>Interactive&#45;&gt;MtdtMailingMenu</title>
<path fill="none" stroke="black" d="M1122.99,-974.01C1101.35,-929.39 1068.93,-859.58 1046,-796.95 1013.98,-709.52 986.02,-604.03 971.53,-546.03"/>
<polygon fill="black" stroke="black" points="974.87,-544.97 969.07,-536.11 968.08,-546.66 974.87,-544.97"/>
</g>
<!-- MailingOrgInitiator -->
<g id="node22" class="node">
<title>MailingOrgInitiator</title>
<polygon fill="#ee8262" stroke="black" points="1196,-911.95 1154,-911.95 1154,-839.95 1196,-839.95 1196,-833.95 1214,-875.95 1196,-917.95 1196,-911.95"/>
<text text-anchor="middle" x="1184" y="-886.75" font-family="Times,serif" font-size="14.00">Mailing</text>
<text text-anchor="middle" x="1184" y="-871.75" font-family="Times,serif" font-size="14.00">Org</text>
<text text-anchor="middle" x="1184" y="-856.75" font-family="Times,serif" font-size="14.00">Initiator</text>
<text text-anchor="middle" x="1184" y="-841.75" font-family="Times,serif" font-size="14.00"> </text>
</g>
<!-- Interactive&#45;&gt;MailingOrgInitiator -->
<g id="edge28" class="edge">
<title>Interactive&#45;&gt;MailingOrgInitiator</title>
<path fill="none" stroke="black" d="M1159.18,-970.55C1162.84,-956.76 1166.82,-941.77 1170.49,-927.91"/>
<polygon fill="black" stroke="black" points="1173.93,-928.61 1173.11,-918.05 1167.16,-926.81 1173.93,-928.61"/>
</g>
<!-- lcntProcMailing -->
<g id="node24" class="node">
<title>lcntProcMailing</title>
<polygon fill="#cd7054" stroke="black" points="1113.5,-783.45 1054.5,-783.45 1054.5,-726.45 1113.5,-726.45 1113.5,-720.45 1131.5,-754.95 1113.5,-789.45 1113.5,-783.45"/>
<text text-anchor="middle" x="1093" y="-758.25" font-family="Times,serif" font-size="14.00">lcntProc.sh</text>
<text text-anchor="middle" x="1093" y="-743.25" font-family="Times,serif" font-size="14.00">Mailing</text>
<text text-anchor="middle" x="1093" y="-728.25" font-family="Times,serif" font-size="14.00"> </text>
</g>
<!-- Interactive&#45;&gt;lcntProcMailing -->
<g id="edge29" class="edge">
<title>Interactive&#45;&gt;lcntProcMailing</title>
<path fill="none" stroke="black" d="M1135.84,-969.63C1125.96,-920.33 1111.1,-846.2 1101.73,-799.49"/>
<polygon fill="black" stroke="black" points="1105.16,-798.78 1099.76,-789.66 1098.29,-800.16 1105.16,-798.78"/>
</g>
<!-- MailingFileUsage -->
<g id="node25" class="node">
<title>MailingFileUsage</title>
<polygon fill="#ffa07a" stroke="black" points="1324,-790.95 1282,-790.95 1282,-718.95 1324,-718.95 1324,-712.95 1342,-754.95 1324,-796.95 1324,-790.95"/>
<text text-anchor="middle" x="1312" y="-765.75" font-family="Times,serif" font-size="14.00">Mailing</text>
<text text-anchor="middle" x="1312" y="-750.75" font-family="Times,serif" font-size="14.00">File</text>
<text text-anchor="middle" x="1312" y="-735.75" font-family="Times,serif" font-size="14.00">Usage</text>
<text text-anchor="middle" x="1312" y="-720.75" font-family="Times,serif" font-size="14.00"> </text>
</g>
<!-- Interactive&#45;&gt;MailingFileUsage -->
<g id="edge30" class="edge">
<title>Interactive&#45;&gt;MailingFileUsage</title>
<path fill="none" stroke="black" d="M1178.47,-979.92C1192.76,-961.46 1209.36,-939.05 1223,-917.95 1246.48,-881.62 1269.92,-838.62 1286.84,-806.06"/>
<polygon fill="black" stroke="black" points="1289.95,-807.65 1291.43,-797.16 1283.73,-804.44 1289.95,-807.65"/>
</g>
<!-- MailingFile&#45;&gt;CustomizeFile -->
<g id="edge13" class="edge">
<title>MailingFile&#45;&gt;CustomizeFile</title>
<path fill="none" stroke="black" d="M873.47,-1126.09C892.64,-1107.92 916.15,-1085.64 936.47,-1066.38"/>
<polygon fill="black" stroke="black" points="938.95,-1068.86 943.8,-1059.44 934.13,-1063.78 938.95,-1068.86"/>
</g>
<!-- TemplateFile -->
<g id="node12" class="node">
<title>TemplateFile</title>
<polygon fill="#fff68f" stroke="black" points="800.5,-1059.28 688.35,-1059.28 659.5,-983.28 771.65,-983.28 800.5,-1059.28"/>
<text text-anchor="middle" x="730" y="-1025.08" font-family="Times,serif" font-size="14.00">Template</text>
<text text-anchor="middle" x="730" y="-1010.08" font-family="Times,serif" font-size="14.00">File</text>
</g>
<!-- MailingFile&#45;&gt;TemplateFile -->
<g id="edge14" class="edge">
<title>MailingFile&#45;&gt;TemplateFile</title>
<path fill="none" stroke="black" d="M807.59,-1124.27C794.41,-1106.93 778.61,-1086.17 764.72,-1067.91"/>
<polygon fill="black" stroke="black" points="767.32,-1065.56 758.48,-1059.72 761.75,-1069.8 767.32,-1065.56"/>
</g>
<!-- MailingCmnd -->
<g id="node13" class="node">
<title>MailingCmnd</title>
<ellipse fill="#fff68f" stroke="black" cx="781" cy="-875.95" rx="52.15" ry="26.74"/>
<text text-anchor="middle" x="781" y="-879.75" font-family="Times,serif" font-size="14.00">Mailing</text>
<text text-anchor="middle" x="781" y="-864.75" font-family="Times,serif" font-size="14.00">Command</text>
</g>
<!-- MailingFile&#45;&gt;MailingCmnd -->
<g id="edge15" class="edge">
<title>MailingFile&#45;&gt;MailingCmnd</title>
<path fill="none" stroke="black" d="M832.51,-1124.37C828.45,-1085.34 820.77,-1022.39 809,-968.95 805.7,-953.99 803.46,-950.62 799,-935.95 796.7,-928.4 794.24,-920.31 791.89,-912.61"/>
<polygon fill="black" stroke="black" points="795.16,-911.34 788.9,-902.8 788.47,-913.38 795.16,-911.34"/>
<text text-anchor="middle" x="844.5" y="-1017.58" font-family="Times,serif" font-size="14.00">Derive</text>
</g>
<!-- TemplateFile&#45;&gt;MailingCmnd -->
<g id="edge16" class="edge">
<title>TemplateFile&#45;&gt;MailingCmnd</title>
<path fill="none" stroke="black" d="M743.27,-983C751.01,-961.23 760.73,-933.92 768.37,-912.46"/>
<polygon fill="black" stroke="black" points="771.76,-913.35 771.82,-902.75 765.17,-911 771.76,-913.35"/>
<text text-anchor="middle" x="776.5" y="-939.75" font-family="Times,serif" font-size="14.00">Derive</text>
</g>
<!-- ListOfMailingCmnds -->
<g id="node14" class="node">
<title>ListOfMailingCmnds</title>
<ellipse fill="#fff68f" stroke="black" cx="937" cy="-754.95" rx="52.15" ry="37.45"/>
<text text-anchor="middle" x="937" y="-766.25" font-family="Times,serif" font-size="14.00">List of</text>
<text text-anchor="middle" x="937" y="-751.25" font-family="Times,serif" font-size="14.00">Mailing</text>
<text text-anchor="middle" x="937" y="-736.25" font-family="Times,serif" font-size="14.00">Command</text>
</g>
<!-- MailingCmnd&#45;&gt;ListOfMailingCmnds -->
<g id="edge18" class="edge">
<title>MailingCmnd&#45;&gt;ListOfMailingCmnds</title>
<path fill="none" stroke="black" d="M809.61,-853.13C833.13,-835.19 866.82,-809.49 893.65,-789.02"/>
<polygon fill="black" stroke="black" points="895.9,-791.7 901.73,-782.86 891.66,-786.14 895.9,-791.7"/>
</g>
<!-- SelectedGnusMailing -->
<g id="node16" class="node">
<title>SelectedGnusMailing</title>
<ellipse fill="green" stroke="black" cx="781" cy="-754.95" rx="43.68" ry="37.45"/>
<text text-anchor="middle" x="781" y="-766.25" font-family="Times,serif" font-size="14.00">Selected</text>
<text text-anchor="middle" x="781" y="-751.25" font-family="Times,serif" font-size="14.00">Gnus</text>
<text text-anchor="middle" x="781" y="-736.25" font-family="Times,serif" font-size="14.00">Mailing</text>
</g>
<!-- MailingCmnd&#45;&gt;SelectedGnusMailing -->
<g id="edge17" class="edge">
<title>MailingCmnd&#45;&gt;SelectedGnusMailing</title>
<path fill="none" stroke="black" d="M781,-848.84C781,-835.37 781,-818.52 781,-802.89"/>
<polygon fill="black" stroke="black" points="784.5,-802.84 781,-792.84 777.5,-802.84 784.5,-802.84"/>
</g>
<!-- SelectedMailings -->
<g id="node15" class="node">
<title>SelectedMailings</title>
<ellipse fill="green" stroke="black" cx="1146" cy="-624.48" rx="48.58" ry="37.45"/>
<text text-anchor="middle" x="1146" y="-635.78" font-family="Times,serif" font-size="14.00">Selected</text>
<text text-anchor="middle" x="1146" y="-620.78" font-family="Times,serif" font-size="14.00">List of</text>
<text text-anchor="middle" x="1146" y="-605.78" font-family="Times,serif" font-size="14.00">Mailings </text>
</g>
<!-- ListOfMailingCmnds&#45;&gt;SelectedMailings -->
<g id="edge19" class="edge">
<title>ListOfMailingCmnds&#45;&gt;SelectedMailings</title>
<path fill="none" stroke="black" d="M976.31,-729.79C1011.34,-708.25 1062.64,-676.72 1099.66,-653.96"/>
<polygon fill="black" stroke="black" points="1101.59,-656.89 1108.27,-648.67 1097.92,-650.92 1101.59,-656.89"/>
</g>
<!-- SelectedMailings&#45;&gt;MtdtMailingMenu -->
<g id="edge20" class="edge">
<title>SelectedMailings&#45;&gt;MtdtMailingMenu</title>
<path fill="none" stroke="black" d="M1109.45,-599.58C1084.24,-583.09 1050.16,-560.8 1021.01,-541.74"/>
<polygon fill="black" stroke="black" points="1022.82,-538.74 1012.53,-536.2 1018.98,-544.6 1022.82,-538.74"/>
<text text-anchor="middle" x="1078.5" y="-557.8" font-family="Times,serif" font-size="14.00">Inform</text>
</g>
<!-- SelectedGnusMailing&#45;&gt;Gnus -->
<g id="edge21" class="edge">
<title>SelectedGnusMailing&#45;&gt;Gnus</title>
<path fill="none" stroke="black" d="M781,-717.14C781,-702.32 781,-685.1 781,-669.61"/>
<polygon fill="black" stroke="black" points="784.5,-669.22 781,-659.22 777.5,-669.22 784.5,-669.22"/>
<text text-anchor="middle" x="800.5" y="-683.75" font-family="Times,serif" font-size="14.00">Inform</text>
</g>
<!-- Forward -->
<g id="node18" class="node">
<title>Forward</title>
<polygon fill="orange" stroke="black" points="794,-443 750,-443 750,-386 794,-386 794,-380 812,-414.5 794,-449 794,-443"/>
<text text-anchor="middle" x="781" y="-417.8" font-family="Times,serif" font-size="14.00">Gnus</text>
<text text-anchor="middle" x="781" y="-402.8" font-family="Times,serif" font-size="14.00">Forward</text>
<text text-anchor="middle" x="781" y="-387.8" font-family="Times,serif" font-size="14.00"> </text>
</g>
<!-- Gnus&#45;&gt;Forward -->
<g id="edge42" class="edge">
<title>Gnus&#45;&gt;Forward</title>
<path fill="none" stroke="black" d="M781,-589.6C781,-554.14 781,-498.33 781,-459.49"/>
<polygon fill="black" stroke="black" points="784.5,-459.02 781,-449.02 777.5,-459.02 784.5,-459.02"/>
</g>
<!-- GnusCompose -->
<g id="node19" class="node">
<title>GnusCompose</title>
<polygon fill="orange" stroke="black" points="907,-443 857,-443 857,-386 907,-386 907,-380 925,-414.5 907,-449 907,-443"/>
<text text-anchor="middle" x="891" y="-417.8" font-family="Times,serif" font-size="14.00">Gnus</text>
<text text-anchor="middle" x="891" y="-402.8" font-family="Times,serif" font-size="14.00">Compose</text>
<text text-anchor="middle" x="891" y="-387.8" font-family="Times,serif" font-size="14.00"> </text>
</g>
<!-- Gnus&#45;&gt;GnusCompose -->
<g id="edge43" class="edge">
<title>Gnus&#45;&gt;GnusCompose</title>
<path fill="none" stroke="black" d="M789.97,-589.86C801.57,-547.05 821.09,-477.35 828,-467 833.65,-458.54 841.1,-450.77 848.9,-443.96"/>
<polygon fill="black" stroke="black" points="851.26,-446.55 856.76,-437.49 846.81,-441.14 851.26,-446.55"/>
</g>
<!-- Reply -->
<g id="node20" class="node">
<title>Reply</title>
<polygon fill="orange" stroke="black" points="873,-530 837,-530 837,-473 873,-473 873,-467 891,-501.5 873,-536 873,-530"/>
<text text-anchor="middle" x="864" y="-504.8" font-family="Times,serif" font-size="14.00">Gnus</text>
<text text-anchor="middle" x="864" y="-489.8" font-family="Times,serif" font-size="14.00">Reply</text>
<text text-anchor="middle" x="864" y="-474.8" font-family="Times,serif" font-size="14.00"> </text>
</g>
<!-- Gnus&#45;&gt;Reply -->
<g id="edge41" class="edge">
<title>Gnus&#45;&gt;Reply</title>
<path fill="none" stroke="black" d="M807.77,-589.88C812.95,-583.07 818.25,-575.88 823,-569 828.32,-561.3 833.76,-552.91 838.85,-544.78"/>
<polygon fill="black" stroke="black" points="841.94,-546.43 844.23,-536.09 835.99,-542.75 841.94,-546.43"/>
</g>
<!-- unsentBuffer -->
<g id="node30" class="node">
<title>unsentBuffer</title>
<polygon fill="deepskyblue" stroke="black" points="951.88,-135 1016.12,-135 1039,-241 929,-241 951.88,-135"/>
<text text-anchor="middle" x="984" y="-199.3" font-family="Times,serif" font-size="14.00">Unsent</text>
<text text-anchor="middle" x="984" y="-184.3" font-family="Times,serif" font-size="14.00">Mail</text>
<text text-anchor="middle" x="984" y="-169.3" font-family="Times,serif" font-size="14.00">Buffer</text>
</g>
<!-- Forward&#45;&gt;unsentBuffer -->
<g id="edge45" class="edge">
<title>Forward&#45;&gt;unsentBuffer</title>
<path fill="none" stroke="black" d="M811.28,-379.77C835.94,-352.32 871.67,-312.61 903,-278 911.6,-268.5 920.74,-258.44 929.65,-248.63"/>
<polygon fill="black" stroke="black" points="932.27,-250.95 936.41,-241.2 927.09,-246.24 932.27,-250.95"/>
</g>
<!-- GnusCompose&#45;&gt;unsentBuffer -->
<g id="edge46" class="edge">
<title>GnusCompose&#45;&gt;unsentBuffer</title>
<path fill="none" stroke="black" d="M901.34,-379.76C911.44,-348.06 927.9,-299.56 946,-259 947.26,-256.19 948.58,-253.33 949.95,-250.47"/>
<polygon fill="black" stroke="black" points="953.19,-251.82 954.47,-241.31 946.91,-248.72 953.19,-251.82"/>
</g>
<!-- Reply&#45;&gt;unsentBuffer -->
<g id="edge44" class="edge">
<title>Reply&#45;&gt;unsentBuffer</title>
<path fill="none" stroke="black" d="M891.28,-474.52C894.47,-471.87 897.75,-469.31 901,-467 914.62,-457.33 924.15,-462.49 934,-449 976.04,-391.42 985.49,-308.18 986.41,-251.5"/>
<polygon fill="black" stroke="black" points="989.92,-251.27 986.49,-241.24 982.92,-251.21 989.92,-251.27"/>
</g>
<!-- MailingCompose -->
<g id="node26" class="node">
<title>MailingCompose</title>
<polygon fill="magenta" stroke="black" points="1134,-356 1084,-356 1084,-284 1134,-284 1134,-278 1152,-320 1134,-362 1134,-356"/>
<text text-anchor="middle" x="1118" y="-330.8" font-family="Times,serif" font-size="14.00">Mailing</text>
<text text-anchor="middle" x="1118" y="-315.8" font-family="Times,serif" font-size="14.00">Native</text>
<text text-anchor="middle" x="1118" y="-300.8" font-family="Times,serif" font-size="14.00">Compose</text>
<text text-anchor="middle" x="1118" y="-285.8" font-family="Times,serif" font-size="14.00"> </text>
</g>
<!-- MtdtMailingMenu&#45;&gt;MailingCompose -->
<g id="edge23" class="edge">
<title>MtdtMailingMenu&#45;&gt;MailingCompose</title>
<path fill="none" stroke="black" d="M991.99,-466.83C997.36,-460.92 1002.86,-454.8 1008,-449 1031.23,-422.77 1056.75,-393.13 1077.36,-368.97"/>
<polygon fill="black" stroke="black" points="1080.05,-371.22 1083.87,-361.33 1074.72,-366.67 1080.05,-371.22"/>
</g>
<!-- MailingExtCompose -->
<g id="node27" class="node">
<title>MailingExtCompose</title>
<polygon fill="magenta" stroke="black" points="1048,-356 998,-356 998,-284 1048,-284 1048,-278 1066,-320 1048,-362 1048,-356"/>
<text text-anchor="middle" x="1032" y="-330.8" font-family="Times,serif" font-size="14.00">Mailing</text>
<text text-anchor="middle" x="1032" y="-315.8" font-family="Times,serif" font-size="14.00">External</text>
<text text-anchor="middle" x="1032" y="-300.8" font-family="Times,serif" font-size="14.00">Compose</text>
<text text-anchor="middle" x="1032" y="-285.8" font-family="Times,serif" font-size="14.00"> </text>
</g>
<!-- MtdtMailingMenu&#45;&gt;MailingExtCompose -->
<g id="edge22" class="edge">
<title>MtdtMailingMenu&#45;&gt;MailingExtCompose</title>
<path fill="none" stroke="black" d="M974.35,-466.74C984.94,-439.98 999.9,-402.17 1011.92,-371.76"/>
<polygon fill="black" stroke="black" points="1015.29,-372.76 1015.71,-362.17 1008.78,-370.19 1015.29,-372.76"/>
</g>
<!-- MailingOrgDblock -->
<g id="node23" class="node">
<title>MailingOrgDblock</title>
<polygon fill="#ee8262" stroke="black" points="1225,-790.95 1181,-790.95 1181,-718.95 1225,-718.95 1225,-712.95 1243,-754.95 1225,-796.95 1225,-790.95"/>
<text text-anchor="middle" x="1212" y="-765.75" font-family="Times,serif" font-size="14.00">Mailing</text>
<text text-anchor="middle" x="1212" y="-750.75" font-family="Times,serif" font-size="14.00">Org</text>
<text text-anchor="middle" x="1212" y="-735.75" font-family="Times,serif" font-size="14.00">Dblocks</text>
<text text-anchor="middle" x="1212" y="-720.75" font-family="Times,serif" font-size="14.00"> </text>
</g>
<!-- MailingOrgInitiator&#45;&gt;MailingOrgDblock -->
<g id="edge31" class="edge">
<title>MailingOrgInitiator&#45;&gt;MailingOrgDblock</title>
<path fill="none" stroke="black" d="M1193.71,-833.67C1195.73,-825.08 1197.89,-815.94 1199.98,-807.05"/>
<polygon fill="black" stroke="black" points="1203.42,-807.7 1202.3,-797.17 1196.61,-806.1 1203.42,-807.7"/>
</g>
<!-- MailingOrgDblock&#45;&gt;SelectedMailings -->
<g id="edge34" class="edge">
<title>MailingOrgDblock&#45;&gt;SelectedMailings</title>
<path fill="none" stroke="black" d="M1174.29,-716.9C1168.84,-710.03 1163.8,-702.6 1160,-694.95 1154.97,-684.81 1151.74,-672.99 1149.68,-662"/>
<polygon fill="black" stroke="black" points="1171.72,-719.28 1180.84,-724.68 1177.08,-714.77 1171.72,-719.28"/>
<text text-anchor="middle" x="1177" y="-683.75" font-family="Times,serif" font-size="14.00">Select</text>
</g>
<!-- MailingOrgDblock&#45;&gt;MailingCompose -->
<g id="edge33" class="edge">
<title>MailingOrgDblock&#45;&gt;MailingCompose</title>
<path fill="none" stroke="black" d="M1243.18,-733.93C1255.87,-723.92 1269.15,-710.59 1276,-694.95 1304.09,-630.85 1320.56,-433.13 1275,-380 1241.61,-341.06 1206.98,-384.73 1161,-362 1160.9,-361.95 1160.81,-361.91 1160.71,-361.86"/>
<polygon fill="black" stroke="black" points="1162.47,-358.83 1152.09,-356.7 1158.88,-364.84 1162.47,-358.83"/>
</g>
<!-- MailingOrgDblock&#45;&gt;MailingExtCompose -->
<g id="edge32" class="edge">
<title>MailingOrgDblock&#45;&gt;MailingExtCompose</title>
<path fill="none" stroke="black" d="M1243.11,-718.13C1249.84,-706.45 1254.13,-693.09 1251,-679.95 1221.04,-554.31 1127.88,-430.88 1073.2,-366.62"/>
<polygon fill="black" stroke="black" points="1075.57,-364.01 1066.4,-358.7 1070.26,-368.57 1075.57,-364.01"/>
</g>
<!-- lcntProcMailing&#45;&gt;SelectedMailings -->
<g id="edge37" class="edge">
<title>lcntProcMailing&#45;&gt;SelectedMailings</title>
<path fill="none" stroke="black" d="M1093.78,-720.17C1095.05,-707.18 1097.68,-692.48 1103,-679.95 1105.35,-674.41 1108.42,-668.96 1111.84,-663.77"/>
<polygon fill="black" stroke="black" points="1114.91,-665.49 1117.87,-655.31 1109.21,-661.43 1114.91,-665.49"/>
<text text-anchor="middle" x="1120" y="-683.75" font-family="Times,serif" font-size="14.00">Select</text>
</g>
<!-- lcntProcMailing&#45;&gt;MailingCompose -->
<g id="edge36" class="edge">
<title>lcntProcMailing&#45;&gt;MailingCompose</title>
<path fill="none" stroke="black" d="M1090.73,-720.32C1089.67,-702.91 1088.53,-681.3 1088,-661.95 1087.1,-628.65 1077.19,-618.51 1088,-587 1091.29,-577.41 1098.4,-578.48 1102,-569 1126.49,-504.47 1126.62,-423.74 1123.27,-372.26"/>
<polygon fill="black" stroke="black" points="1126.75,-371.78 1122.54,-362.05 1119.76,-372.28 1126.75,-371.78"/>
</g>
<!-- lcntProcMailing&#45;&gt;MailingExtCompose -->
<g id="edge35" class="edge">
<title>lcntProcMailing&#45;&gt;MailingExtCompose</title>
<path fill="none" stroke="black" d="M1082.07,-720.29C1070.66,-683.55 1053.3,-622.77 1045,-569 1034.59,-501.57 1032.08,-422.74 1031.69,-372.37"/>
<polygon fill="black" stroke="black" points="1035.18,-372.05 1031.63,-362.07 1028.18,-372.09 1035.18,-372.05"/>
</g>
<!-- MailingFileUsage&#45;&gt;SelectedMailings -->
<g id="edge40" class="edge">
<title>MailingFileUsage&#45;&gt;SelectedMailings</title>
<path fill="none" stroke="black" d="M1281.94,-730.69C1255.63,-710.33 1217.16,-680.55 1187.85,-657.86"/>
<polygon fill="black" stroke="black" points="1189.89,-655.02 1179.84,-651.67 1185.61,-660.56 1189.89,-655.02"/>
<text text-anchor="middle" x="1250" y="-683.75" font-family="Times,serif" font-size="14.00">Select</text>
</g>
<!-- MailingFileUsage&#45;&gt;MailingCompose -->
<g id="edge39" class="edge">
<title>MailingFileUsage&#45;&gt;MailingCompose</title>
<path fill="none" stroke="black" d="M1326.78,-712.91C1351.8,-635.23 1391.52,-466.72 1301,-380 1255.7,-336.6 1217.63,-388.99 1161,-362 1160.9,-361.95 1160.81,-361.91 1160.71,-361.86"/>
<polygon fill="black" stroke="black" points="1162.45,-358.82 1152.05,-356.8 1158.91,-364.87 1162.45,-358.82"/>
</g>
<!-- MailingFileUsage&#45;&gt;MailingExtCompose -->
<g id="edge38" class="edge">
<title>MailingFileUsage&#45;&gt;MailingExtCompose</title>
<path fill="none" stroke="black" d="M1303.7,-712.77C1285.75,-634.83 1235.65,-465.92 1125,-380 1106.34,-365.52 1095.09,-374.42 1075,-362 1074.81,-361.88 1074.63,-361.77 1074.44,-361.65"/>
<polygon fill="black" stroke="black" points="1076.39,-358.74 1066.2,-355.86 1072.37,-364.47 1076.39,-358.74"/>
</g>
<!-- MailingCompose&#45;&gt;unsentBuffer -->
<g id="edge25" class="edge">
<title>MailingCompose&#45;&gt;unsentBuffer</title>
<path fill="none" stroke="black" d="M1083.84,-285.86C1072,-274.37 1058.34,-261.12 1045,-248.18"/>
<polygon fill="black" stroke="black" points="1047.25,-245.48 1037.63,-241.03 1042.37,-250.51 1047.25,-245.48"/>
</g>
<!-- MailingExtCompose&#45;&gt;unsentBuffer -->
<g id="edge24" class="edge">
<title>MailingExtCompose&#45;&gt;unsentBuffer</title>
<path fill="none" stroke="black" d="M1016.81,-277.87C1013.63,-269.25 1010.21,-259.99 1006.82,-250.82"/>
<polygon fill="black" stroke="black" points="1010.06,-249.48 1003.32,-241.31 1003.5,-251.91 1010.06,-249.48"/>
</g>
<!-- ResidentMTA -->
<g id="node31" class="node">
<title>ResidentMTA</title>
<polygon fill="cyan" stroke="black" points="1015,-78 941,-78 941,-6 1015,-6 1027,-42 1015,-78"/>
<text text-anchor="middle" x="984" y="-52.8" font-family="Times,serif" font-size="14.00">Resident</text>
<text text-anchor="middle" x="984" y="-37.8" font-family="Times,serif" font-size="14.00">MTA</text>
<text text-anchor="middle" x="984" y="-22.8" font-family="Times,serif" font-size="14.00">(MARMEE)</text>
<text text-anchor="middle" x="984" y="-7.8" font-family="Times,serif" font-size="14.00"> </text>
</g>
<!-- unsentBuffer&#45;&gt;ResidentMTA -->
<g id="edge47" class="edge">
<title>unsentBuffer&#45;&gt;ResidentMTA</title>
<path fill="none" stroke="black" d="M984,-134.61C984,-121.53 984,-107.53 984,-94.5"/>
<polygon fill="black" stroke="black" points="987.5,-94.3 984,-84.3 980.5,-94.3 987.5,-94.3"/>
<text text-anchor="middle" x="999.5" y="-105.8" font-family="Times,serif" font-size="14.00">Inject</text>
</g>
<!-- MailSnippets -->
<g id="node32" class="node">
<title>MailSnippets</title>
<polygon fill="#d4d4d4" stroke="black" points="1246,-347 1170,-347 1170,-293 1246,-293 1246,-347"/>
<text text-anchor="middle" x="1208" y="-315.8" font-family="Times,serif" font-size="14.00">Mail</text>
<text text-anchor="middle" x="1208" y="-300.8" font-family="Times,serif" font-size="14.00">Yasnippets</text>
</g>
<!-- MailSnippets&#45;&gt;unsentBuffer -->
<g id="edge48" class="edge">
<title>MailSnippets&#45;&gt;unsentBuffer</title>
<path fill="none" stroke="black" d="M1180.34,-292.86C1174.2,-287.64 1167.56,-282.41 1161,-278 1123.26,-252.64 1077.3,-229.74 1041.68,-213.52"/>
<polygon fill="black" stroke="black" points="1042.94,-210.25 1032.39,-209.34 1040.07,-216.64 1042.94,-210.25"/>
</g>
</g>
</svg>
